<svg width="95" height="15" viewBox="0 0 95 15" fill="none" xmlns="http://www.w3.org/2000/svg">
<path d="M0.137784 14V0.909091H5.37926C6.34233 0.909091 7.1456 1.05185 7.78906 1.33736C8.43253 1.62287 8.91619 2.01918 9.24006 2.52628C9.56392 3.02912 9.72585 3.60866 9.72585 4.26491C9.72585 4.77628 9.62358 5.22585 9.41903 5.61364C9.21449 5.99716 8.93324 6.3125 8.57528 6.55966C8.22159 6.80256 7.81676 6.97514 7.3608 7.07741V7.20526C7.85938 7.22656 8.32599 7.36719 8.76065 7.62713C9.19957 7.88707 9.5554 8.25142 9.82812 8.72017C10.1009 9.18466 10.2372 9.73864 10.2372 10.3821C10.2372 11.0767 10.0646 11.6967 9.71946 12.2422C9.37855 12.7834 8.87358 13.2116 8.20455 13.527C7.53551 13.8423 6.71094 14 5.73082 14H0.137784ZM2.90554 11.7372H5.16193C5.93324 11.7372 6.49574 11.5902 6.84943 11.2962C7.20313 10.9979 7.37997 10.6016 7.37997 10.1072C7.37997 9.74503 7.29261 9.42543 7.1179 9.14844C6.94318 8.87145 6.69389 8.65412 6.37003 8.49645C6.05043 8.33878 5.66903 8.25994 5.22585 8.25994H2.90554V11.7372ZM2.90554 6.38707H4.95739C5.33665 6.38707 5.6733 6.32102 5.96733 6.18892C6.26563 6.05256 6.5 5.8608 6.67045 5.61364C6.84517 5.36648 6.93253 5.07031 6.93253 4.72514C6.93253 4.25213 6.7642 3.87074 6.42756 3.58097C6.09517 3.29119 5.62216 3.14631 5.00852 3.14631H2.90554V6.38707ZM12.0382 14V0.909091H20.8592V3.19105H14.8059V6.31037H20.4054V8.59233H14.8059V11.718H20.8848V14H12.0382ZM34.0092 0.909091V14H31.6186L25.9233 5.76065H25.8274V14H23.0597V0.909091H25.4886L31.1392 9.14205H31.2543V0.909091H34.0092ZM43.4087 14L39.663 0.909091H42.6864L44.8533 10.005H44.962L47.3526 0.909091H49.9414L52.3256 10.0241H52.4407L54.6076 0.909091H57.631L53.8853 14H51.1879L48.695 5.44105H48.5927L46.1062 14H43.4087ZM60.8063 14.1854C60.1799 14.1854 59.6216 14.0767 59.1316 13.8594C58.6415 13.6378 58.2537 13.3118 57.9682 12.8814C57.687 12.4467 57.5463 11.9055 57.5463 11.2578C57.5463 10.7124 57.6465 10.2543 57.8468 9.88352C58.0471 9.51278 58.3198 9.21449 58.665 8.98864C59.0101 8.76278 59.4022 8.59233 59.8411 8.47727C60.2843 8.36222 60.7488 8.28125 61.2346 8.23438C61.8056 8.17472 62.2658 8.11932 62.6152 8.06818C62.9647 8.01278 63.2182 7.93182 63.3759 7.82528C63.5336 7.71875 63.6124 7.56108 63.6124 7.35227V7.31392C63.6124 6.90909 63.4846 6.59588 63.2289 6.37429C62.9775 6.1527 62.6195 6.0419 62.155 6.0419C61.665 6.0419 61.275 6.15057 60.9853 6.3679C60.6955 6.58097 60.5037 6.84943 60.41 7.1733L57.8915 6.96875C58.0194 6.37216 58.2708 5.85653 58.6458 5.42188C59.0208 4.98295 59.5044 4.64631 60.0968 4.41193C60.6934 4.1733 61.3837 4.05398 62.1678 4.05398C62.7132 4.05398 63.2353 4.1179 63.7338 4.24574C64.2367 4.37358 64.682 4.57173 65.0698 4.8402C65.4618 5.10866 65.7708 5.45384 65.9966 5.87571C66.2225 6.29332 66.3354 6.79403 66.3354 7.37784V14H63.753V12.6385H63.6763C63.5186 12.9453 63.3077 13.2159 63.0435 13.4503C62.7793 13.6804 62.4618 13.8615 62.0911 13.9936C61.7203 14.1214 61.2921 14.1854 60.8063 14.1854ZM61.5861 12.3061C61.9867 12.3061 62.3404 12.2273 62.6472 12.0696C62.954 11.9077 63.1948 11.6903 63.3695 11.4176C63.5442 11.1449 63.6316 10.8359 63.6316 10.4908V9.44886C63.5463 9.50426 63.4292 9.5554 63.28 9.60227C63.1351 9.64489 62.9711 9.68537 62.7878 9.72372C62.6046 9.75781 62.4213 9.78977 62.2381 9.8196C62.0549 9.84517 61.8887 9.86861 61.7395 9.88991C61.4199 9.93679 61.1408 10.0114 60.9022 10.1136C60.6635 10.2159 60.4782 10.3544 60.3461 10.5291C60.214 10.6996 60.1479 10.9126 60.1479 11.1683C60.1479 11.5391 60.2821 11.8224 60.5506 12.0185C60.8233 12.2102 61.1685 12.3061 61.5861 12.3061ZM71.171 0.909091V14H68.448V0.909091H71.171ZM76.0753 0.909091V14H73.3523V0.909091H76.0753ZM82.731 14.1918C81.7211 14.1918 80.8517 13.9872 80.123 13.5781C79.3986 13.1648 78.8404 12.581 78.4483 11.8267C78.0563 11.0682 77.8603 10.1712 77.8603 9.13565C77.8603 8.12571 78.0563 7.23935 78.4483 6.47656C78.8404 5.71378 79.3922 5.11932 80.1039 4.69318C80.8198 4.26705 81.6593 4.05398 82.6223 4.05398C83.2701 4.05398 83.873 4.15838 84.4313 4.36719C84.9938 4.57173 85.4838 4.88068 85.9015 5.29403C86.3233 5.70739 86.6515 6.22727 86.8858 6.85369C87.1202 7.47585 87.2374 8.20455 87.2374 9.03977V9.78764H78.9469V8.10014H84.6742C84.6742 7.7081 84.589 7.3608 84.4185 7.05824C84.248 6.75568 84.0115 6.51918 83.709 6.34872C83.4107 6.17401 83.0634 6.08665 82.6671 6.08665C82.2537 6.08665 81.8873 6.18253 81.5676 6.37429C81.2523 6.56179 81.0051 6.81534 80.8262 7.13494C80.6472 7.45028 80.5556 7.80185 80.5513 8.18963V9.79403C80.5513 10.2798 80.6408 10.6996 80.8198 11.0533C81.003 11.407 81.2608 11.6797 81.5932 11.8714C81.9256 12.0632 82.3198 12.1591 82.7757 12.1591C83.0783 12.1591 83.3553 12.1165 83.6067 12.0312C83.8581 11.946 84.0733 11.8182 84.2523 11.6477C84.4313 11.4773 84.5676 11.2685 84.6614 11.0213L87.1799 11.1875C87.052 11.7926 86.79 12.321 86.3936 12.7727C86.0016 13.2202 85.4945 13.5696 84.8723 13.821C84.2544 14.0682 83.5407 14.1918 82.731 14.1918ZM94.2367 4.18182V6.22727H88.324V4.18182H94.2367ZM89.6664 1.82955H92.3894V10.983C92.3894 11.2344 92.4277 11.4304 92.5044 11.571C92.5811 11.7074 92.6877 11.8033 92.824 11.8587C92.9647 11.9141 93.1266 11.9418 93.3098 11.9418C93.4377 11.9418 93.5655 11.9311 93.6934 11.9098C93.8212 11.8842 93.9192 11.8651 93.9874 11.8523L94.4157 13.8786C94.2793 13.9212 94.0875 13.9702 93.8404 14.0256C93.5932 14.0852 93.2928 14.1214 92.9391 14.1342C92.2828 14.1598 91.7076 14.0724 91.2132 13.8722C90.7232 13.6719 90.3418 13.3608 90.0691 12.9389C89.7963 12.517 89.6621 11.9844 89.6664 11.3409V1.82955Z" fill="#4D3B84"/>
</svg>
